{"title":"RychlyPrachy - Episode 60 - Nikola","uid":7436576,"size":323755343,"categoryP":"porn","categoryS":"movie_clips","magnet":"?xt=urn:btih:a2b51afba8cfdf5ce5e2d10a2fadfe749e2e2d0d&amp;dn=RychlyPrachy+-+Episode+60+-+Nikola&amp;tr=udp%3A%2F%2Ftracker.openbittorrent.com%3A80&amp;tr=udp%3A%2F%2Fopen.demonii.com%3A1337&amp;tr=udp%3A%2F%2Ftracker.coppersurfer.tk%3A6969&amp;tr=udp%3A%2F%2Fexodus.desync.com%3A6969","seeders":1,"leechers":0,"uploader":null,"files":-1,"time":1342099526,"description":"Format                         : Windows Media\nFile size                      : 309 MiB\nDuration                       : 16mn 23s\nOverall bit rate               : 2 634 Kbps\nMaximum Overall bit rate       : 2 645 Kbps\n\nVideo\nFormat                         : VC-1\nCodec ID                       : WMV3\nBit rate                       : 2 525 Kbps\nWidth                          : 640 pixels\nHeight                         : 480 pixels\nDisplay aspect ratio           : 4:3\nFrame rate                     : 30.000 fps\nBit depth                      : 8 bits\nStream size                    : 296 MiB (96%)\n\nAudio\nFormat                         : WMA\nCodec ID                       : 161\nBit rate                       : 96.0 Kbps\nChannel(s)                     : 2 channels\nSampling rate                  : 44.1 KHz\nBit depth                      : 16 bits\nStream size                    : 11.3 MiB (4%)\nLanguage                       : Czech\n &lt;a href=&quot;\nhttp://www.abload.de/img/rp.60.nikola.wmv_thum9ouhi.jpg&quot; rel=&quot;nofollow&quot; target=&quot;_NEW&quot;&gt;\nhttp://www.abload.de/img/rp.60.nikola.wmv_thum9ouhi.jpg&lt;/a&gt;","torrent":{"xt":"urn:btih:a2b51afba8cfdf5ce5e2d10a2fadfe749e2e2d0d","amp;dn":"RychlyPrachy+-+Episode+60+-+Nikola","amp;tr":["udp%3A%2F%2Ftracker.openbittorrent.com%3A80","udp%3A%2F%2Fopen.demonii.com%3A1337","udp%3A%2F%2Ftracker.coppersurfer.tk%3A6969","udp%3A%2F%2Fexodus.desync.com%3A6969"],"infoHash":"a2b51afba8cfdf5ce5e2d10a2fadfe749e2e2d0d","infoHashBuffer":{"type":"Buffer","data":[162,181,26,251,168,207,223,92,229,226,209,10,47,173,254,116,158,46,45,13]},"announce":[],"urlList":[]}}